<svg width="512" height="512" viewBox="0 0 512 512" fill="none" xmlns="http://www.w3.org/2000/svg">
    <!-- Enlarged Shield with beautiful orange-red gradient -->
    <path d="M256 16L32 80V224C32 376 128 472 256 496C384 472 480 376 480 224V80L256 16Z" fill="url(#logoGrad)"/>
    
    <!-- Forest (Three Spaced Pine Trees — All Solid Pure White) -->
    <!-- Left Tree (Background — Enlarged & Solid White) -->
    <path d="M144 152L115.2 248H128L99.2 344H131.2V376H156.8V344H188.8L160 248H172.8L144 152Z" fill="#FFFFFF"/>
    
    <!-- Right Tree (Background — Enlarged & Solid White) -->
    <path d="M368 152L396.8 248H384L412.8 344H380.8V376H355.2V344H323.2L352 248H339.2L368 152Z" fill="#FFFFFF"/>
    
    <!-- Center Tree (Foreground / Taller — Solid White — Height +3px scaled) -->
    <path d="M256 64L224 208H236.8L208 336H243.2V384H268.8V336H304L275.2 208H288L256 64Z" fill="#FFFFFF"/>

    <!-- Gradient definitions -->
    <defs>
        <linearGradient id="logoGrad" x1="32" y1="16" x2="480" y2="496" gradientUnits="userSpaceOnUse">
            <stop stop-color="#FF6B35"/>
            <stop offset="1" stop-color="#F72C1B"/>
        </linearGradient>
    </defs>
</svg>
